<?xml version="1.0" encoding="utf-8"?>
<!-- Generator: Adobe Illustrator 22.1.0, SVG Export Plug-In . SVG Version: 6.00 Build 0)  -->
<svg version="1.1" id="Layer_1" xmlns="http://www.w3.org/2000/svg" xmlns:xlink="http://www.w3.org/1999/xlink" x="0px" y="0px"
	 viewBox="0 0 202 203" style="enable-background:new 0 0 202 203;" xml:space="preserve">
<style type="text/css">
	.st0{fill:#F90629;}
</style>
<g>
	<path class="st0" d="M101,2.5c-54.7,0-99,44.3-99,99c0,54.7,44.3,99,99,99s99-44.3,99-99C200,46.8,155.7,2.5,101,2.5z M101,191
		c-49.4,0-89.5-40.1-89.5-89.5C11.5,52.1,51.6,12,101,12s89.5,40.1,89.5,89.5C190.5,150.9,150.4,191,101,191z"/>
	<path class="st0" d="M101,18c-45.8,0-83,37.2-83,83c0,45.8,37.2,83,83,83s83-37.2,83-83C184,55.2,146.8,18,101,18z M88,150H64
		c-6.6,0-12-5.4-12-12v-24h4v24c0,4.4,3.6,8,8,8h24V150z M88,55H64c-4.4,0-8,3.6-8,8v23h-4V63c0-6.6,5.4-12,12-12h24V55z M150,138
		c0,6.6-5.4,12-12,12h-24v-4h24c4.4,0,8-3.6,8-8v-24h4V138z M150,86h-4V63c0-4.4-3.6-8-8-8h-24v-4h24c6.6,0,12,5.4,12,12V86z"/>
</g>
</svg>
