<?xml version="1.0" encoding="utf-8"?>
<!-- Generator: Adobe Illustrator 19.0.0, SVG Export Plug-In . SVG Version: 6.00 Build 0)  -->
<svg version="1.1" id="Layer_1" xmlns="http://www.w3.org/2000/svg" xmlns:xlink="http://www.w3.org/1999/xlink" x="0px" y="0px"
	 viewBox="-184 276 242 241" style="enable-background:new -184 276 242 241;" xml:space="preserve">
<style type="text/css">
	.st0{fill:#FFFFFF;stroke:#000000;stroke-width:0.5;stroke-miterlimit:10;}
</style>
<g>
	<path class="st0" d="M-63,275.7c-66.6,0-120.6,54-120.6,120.6s54,120.6,120.6,120.6s120.6-54,120.6-120.6S3.6,275.7-63,275.7z
		 M-63,503.2c-59.5,0-107.7-48.2-107.7-107.7c0-59.4,48.2-107.6,107.7-107.6S44.7,336.1,44.7,395.6C44.7,455-3.5,503.2-63,503.2z"/>
	<path class="st0" d="M-63,302.5c-51.6,0-93.5,41.9-93.5,93.5s41.9,93.5,93.5,93.5s93.5-41.9,93.5-93.5S-11.4,302.5-63,302.5z
		 M-33.8,394.7h-19.8l1.1,71.5h-30l-0.7-70.7h-17v-21h17l0.4-31.2c1.9-12.6,11.2-19.3,25-20.4h30l-1.1,26.5h-16.2
		c-6.5,0-8.5,2.8-8.5,8.1v16.6l27.8-0.2L-33.8,394.7z"/>
</g>
</svg>
