<?xml version="1.0" encoding="utf-8"?>
<!-- Generator: Adobe Illustrator 19.0.0, SVG Export Plug-In . SVG Version: 6.00 Build 0)  -->
<svg version="1.1" id="Layer_1" xmlns="http://www.w3.org/2000/svg" xmlns:xlink="http://www.w3.org/1999/xlink" x="0px" y="0px"
	 viewBox="-184 276 242 241" style="enable-background:new -184 276 242 241;" xml:space="preserve">
<style type="text/css">
	.st0{fill:#FFFFFF;stroke:#000000;stroke-width:0.5;stroke-miterlimit:10;}
</style>
<g>
	<g>
		<path class="st0" d="M-35.9,340.2h-53.5c-15.7,0-28.5,12.8-28.5,28.5v54.9c0,15.7,12.8,28.5,28.5,28.5h53.5
			c15.7,0,28.5-12.8,28.5-28.5v-54.9C-7.4,353-20.2,340.2-35.9,340.2z M-62.7,430.5c-19,0-34.4-15.4-34.4-34.4s15.4-34.4,34.4-34.4
			s34.4,15.4,34.4,34.4C-28.3,415.1-43.7,430.5-62.7,430.5z M-26.6,367.8c-4.7,0-8.4-3.8-8.4-8.4s3.8-8.4,8.4-8.4s8.4,3.8,8.4,8.4
			S-22,367.8-26.6,367.8z"/>
		<circle class="st0" cx="-63.3" cy="396.1" r="22.9"/>
		<path class="st0" d="M-63,301.5c-52.2,0-94.5,42.3-94.5,94.5s42.3,94.5,94.5,94.5s94.5-42.3,94.5-94.5S-10.8,301.5-63,301.5z
			 M-36.1,464.2h-53.8c-22.1,0-40.2-18.1-40.2-40.2v-55.1c0-22.1,18.1-40.2,40.2-40.2h53.8c22.1,0,40.2,18.1,40.2,40.2V424
			C4.1,446.1-14,464.2-36.1,464.2z"/>
	</g>
	<path class="st0" d="M-63,275.7c-66.6,0-120.6,54-120.6,120.6s54,120.6,120.6,120.6s120.6-54,120.6-120.6S3.6,275.7-63,275.7z
		 M-63,503.2c-59.5,0-107.7-48.2-107.7-107.7c0-59.4,48.2-107.6,107.7-107.6S44.7,336.1,44.7,395.6C44.7,455-3.5,503.2-63,503.2z"/>
</g>
</svg>
