<svg xmlns="http://www.w3.org/2000/svg" viewBox="0 0 483.83 75"><defs><style>.cls-1{fill:#ed1e29;}.cls-2{fill:#fff;}</style></defs><title>Asset 9</title><g id="Layer_2" data-name="Layer 2"><g id="Layer_1-2" data-name="Layer 1"><rect class="cls-1" width="483.83" height="75"/><path class="cls-2" d="M38.5,44.93H35L32.2,60.82H17.92l8.61-49.57H43c6.93,0,14.91,3.64,14.91,14.08C57.89,38.14,49.7,44.93,38.5,44.93Zm2.24-21.35h-2.1L37,33.17h2c2.87,0,5.11-2.31,5.11-5.67C44.17,24.84,42.49,23.58,40.74,23.58Z"/><path class="cls-2" d="M95.41,41.5c-2,11.69-6.44,20.72-20.16,20.72-11,0-16.73-6.3-16.73-15a33.17,33.17,0,0,1,.56-5.74l5.25-30.18H79.1l-5,29.13a25.23,25.23,0,0,0-.49,4.06c0,2.24.84,3.64,2.73,3.64,3.15,0,3.92-2.94,4.76-7.7l5-29.13h14.63Z"/><path class="cls-2" d="M130.41,39.68l4.69,21.14H119.63L117,42.76h-1.82L112,60.82H98l8.61-49.57h17.15c9.59,0,14.84,4.76,14.84,13.94C138.6,32.33,135.59,37.44,130.41,39.68Zm-9.94-16.17h-2l-1.61,9.17h1.54c2.8,0,5.39-1.47,5.39-5.6C123.83,24.21,121.87,23.51,120.47,23.51Z"/><path class="cls-2" d="M171.29,24.14H159.6l-1,5.6h10.78l-2,12H156.52l-1.05,6h13l-2.24,13.09h-27l8.61-49.57h25.69Z"/><path class="cls-2" d="M207.2,51.86h.21l14.91-40.61h7.49L210.35,60.82h-6.44L184.59,11.25h7.7Z"/><path class="cls-2" d="M256.11,62.08c-15.05,0-26.18-10.85-26.18-26.11,0-15.47,11.13-26,26.18-26s26.33,10.51,26.33,26C282.44,51.23,271.23,62.08,256.11,62.08Zm0-46c-11.41,0-18.69,9-18.69,19.88,0,11.06,7.35,19.88,18.69,19.88S274.94,47,274.94,36C274.94,25.12,267.66,16.09,256.11,16.09Z"/><path class="cls-2" d="M297.59,54.66h22.13v6.16H290.66V11.25h6.93Z"/><path class="cls-2" d="M323.31,42.48V11.25h6.93V42.06c0,6.79,3.08,13.79,12.32,13.79s12.32-7,12.32-13.79V11.25h6.93V42.48c0,10.15-6.16,19.6-19.25,19.6S323.31,52.63,323.31,42.48Z"/><path class="cls-2" d="M396.6,49.34h.14l14.63-38.09h10.78V60.82h-6.93V19.38h-.14L398.63,60.82h-4.41L377.84,19.38h-.14V60.82H371V11.25h10.78Z"/><path class="cls-2" d="M440,54.66h25.91v6.16H433.08V11.25h31.79v6.09H440V32.19H463.4v6H440Z"/></g></g></svg>