<?xml version="1.0" encoding="utf-8"?>
<!-- Generator: Adobe Illustrator 22.1.0, SVG Export Plug-In . SVG Version: 6.00 Build 0)  -->
<svg version="1.1" id="Layer_1" xmlns="http://www.w3.org/2000/svg" xmlns:xlink="http://www.w3.org/1999/xlink" x="0px" y="0px"
	 viewBox="0 0 209 209" style="enable-background:new 0 0 209 209;" xml:space="preserve">
<style type="text/css">
	.st0{fill:#F90629;}
</style>
<path class="st0" d="M105,5.5c-54.7,0-99,44.3-99,99c0,54.7,44.3,99,99,99s99-44.3,99-99C204,49.8,159.7,5.5,105,5.5z M105,194
	c-49.4,0-89.5-40.1-89.5-89.5C15.5,55.1,55.6,15,105,15s89.5,40.1,89.5,89.5C194.5,153.9,154.4,194,105,194z"/>
<path class="st0" d="M105,21c-46.1,0-83.5,37.4-83.5,83.5S58.9,188,105,188s83.5-37.4,83.5-83.5S151.1,21,105,21z M84.5,150.5h-6V56
	h6V150.5z M129.2,150.5h-5.7V56h5.7V150.5z"/>
</svg>
