<?xml version="1.0" encoding="utf-8"?>
<!-- Generator: Adobe Illustrator 22.1.0, SVG Export Plug-In . SVG Version: 6.00 Build 0)  -->
<svg version="1.1" xmlns="http://www.w3.org/2000/svg" xmlns:xlink="http://www.w3.org/1999/xlink" x="0px" y="0px"
	 viewBox="0 0 242 241" style="enable-background:new 0 0 242 241;" xml:space="preserve">
<style type="text/css">
	.st0{stroke:#000000;stroke-width:0.5;stroke-miterlimit:10;}
</style>
<g id="instagram">
</g>
<g id="twitter">
	<g>
		<path class="st0" d="M121,26.5c-51.6,0-93.5,41.9-93.5,93.5s41.9,93.5,93.5,93.5s93.5-41.9,93.5-93.5S172.6,26.5,121,26.5z
			 M173,98.2c1.2,69.1-71.3,98.6-117.3,67.3c13.3,2.2,26.6-1.4,39.9-10.8c-12.6-0.2-21.1-6-24.8-18.4c3.6,0.7,7.4,0.6,11.4-0.5
			c-13.7-3.5-20.4-12.9-21.5-26.8c3.9,2.1,8,3.6,12.2,3.6c-11.9-8.9-15-20.8-8.3-35.9c15.5,17.2,33.7,27.4,55.3,28.3
			c-5.4-31,30.1-42.4,45.9-24.5c5.7-1.4,11.3-3.5,16.9-6.5c-1.9,5.6-5.6,10.6-11.4,14.8c5.5-0.8,10.5-2.3,15-4.3
			C182.9,89.6,178.6,94.3,173,98.2z"/>
		<path class="st0" d="M121-0.3C54.4-0.3,0.4,53.7,0.4,120.3s54,120.6,120.6,120.6s120.6-54,120.6-120.6S187.6-0.3,121-0.3z
			 M121,227.2c-59.5,0-107.7-48.2-107.7-107.7C13.3,60.1,61.5,11.9,121,11.9s107.7,48.2,107.7,107.7
			C228.7,179,180.5,227.2,121,227.2z"/>
	</g>
</g>
<g id="facebook">
</g>
</svg>
