<?xml version="1.0" encoding="utf-8"?>
<!-- Generator: Adobe Illustrator 22.1.0, SVG Export Plug-In . SVG Version: 6.00 Build 0)  -->
<svg version="1.1" id="Layer_1" xmlns="http://www.w3.org/2000/svg" xmlns:xlink="http://www.w3.org/1999/xlink" x="0px" y="0px"
	 viewBox="0 0 203 202" style="enable-background:new 0 0 203 202;" xml:space="preserve">
<style type="text/css">
	.st0{fill:#F90629;}
</style>
<path class="st0" d="M100,2.5c-54.7,0-99,44.3-99,99c0,54.7,44.3,99,99,99s99-44.3,99-99C199,46.8,154.7,2.5,100,2.5z M100,191
	c-49.4,0-89.5-40.1-89.5-89.5C10.5,52.1,50.6,12,100,12s89.5,40.1,89.5,89.5C189.5,150.9,149.4,191,100,191z"/>
<path class="st0" d="M100,18c-46.1,0-83.5,37.4-83.5,83.5S53.9,185,100,185s83.5-37.4,83.5-83.5S146.1,18,100,18z M102.2,142.8
	l-29.1-25.1H46.4V85.8h27.1L102.2,61V142.8z M119,121.1c-0.5,0.8-1.3,1.2-2.1,1.2c-0.5,0-0.9-0.1-1.3-0.4c-1.2-0.7-1.5-2.3-0.8-3.4
	c3.1-5,4.7-10.7,4.7-16.5c0-5.9-1.7-11.7-4.9-16.7c-0.7-1.2-0.4-2.7,0.8-3.5c1.2-0.7,2.7-0.4,3.5,0.8c3.7,5.8,5.7,12.5,5.7,19.4
	C124.5,108.7,122.5,115.3,119,121.1z M128.6,134c-0.5,0-1-0.2-1.5-0.5c-1.1-0.8-1.4-2.4-0.5-3.5c6-8.2,9.2-17.9,9.2-28.1
	c0-10.3-3.2-20.1-9.4-28.4c-0.8-1.1-0.6-2.7,0.5-3.5c1.1-0.8,2.7-0.6,3.5,0.5c6.8,9.1,10.3,20,10.3,31.3c0,11.3-3.5,22-10.2,31.1
	C130.1,133.7,129.4,134,128.6,134z M141.5,144c-0.5,0.6-1.2,1-2,1c-0.5,0-1.1-0.2-1.5-0.5c-1.1-0.9-1.3-2.4-0.4-3.5
	c8.9-11.2,13.5-24.7,13.5-39c0-14.4-4.7-28-13.7-39.2c-0.9-1.1-0.7-2.7,0.4-3.5c1.1-0.9,2.7-0.7,3.5,0.4
	c9.7,12.1,14.8,26.8,14.8,42.3C156.1,117.4,151.1,131.9,141.5,144z"/>
</svg>
