<?xml version="1.0" encoding="utf-8"?>
<!-- Generator: Adobe Illustrator 22.1.0, SVG Export Plug-In . SVG Version: 6.00 Build 0)  -->
<svg version="1.1" id="Layer_1" xmlns="http://www.w3.org/2000/svg" xmlns:xlink="http://www.w3.org/1999/xlink" x="0px" y="0px"
	 viewBox="0 0 203 205" style="enable-background:new 0 0 203 205;" xml:space="preserve">
<style type="text/css">
	.st0{fill:#F90629;}
</style>
<g>
	<path class="st0" d="M101,3.5c-54.7,0-99,44.3-99,99c0,54.7,44.3,99,99,99s99-44.3,99-99C200,47.8,155.7,3.5,101,3.5z M101,192
		c-49.4,0-89.5-40.1-89.5-89.5C11.5,53.1,51.6,13,101,13s89.5,40.1,89.5,89.5C190.5,151.9,150.4,192,101,192z"/>
	<path class="st0" d="M101.5,19C55.4,19,18,56.4,18,102.5S55.4,186,101.5,186s83.5-37.4,83.5-83.5S147.6,19,101.5,19z M103.7,143.8
		l-29.1-25.1H47.9V86.8H75L103.7,62V143.8z M120.5,122.1c-0.5,0.8-1.3,1.2-2.1,1.2c-0.5,0-0.9-0.1-1.3-0.4c-1.2-0.7-1.5-2.3-0.8-3.4
		c3.1-5,4.7-10.7,4.7-16.5c0-5.9-1.7-11.7-4.9-16.7c-0.7-1.2-0.4-2.7,0.8-3.5c1.2-0.7,2.7-0.4,3.5,0.8c3.7,5.8,5.7,12.5,5.7,19.4
		C126,109.7,124,116.3,120.5,122.1z"/>
</g>
</svg>
